<?xml version="1.0" encoding="UTF-8"?>
<svg xmlns="http://www.w3.org/2000/svg" width="28" height="28" viewBox="0 0 48 48">
    <path d="M24,4C12.954,4,4,12.954,4,24s8.954,20,20,20s20-8.954,20-20S35.046,4,24,4z"/>
    <path fill="#FFFFFF" d="M31.8,25.1c-0.1,2.1,0.5,4.2,1.7,5.9c0.6,0.8,0.4,1.9-0.4,2.5c-1.7,1.3-3.7,2.1-5.8,2.4 c-2.1,0.3-4.3,0-6.2-0.8c-2-0.8-3.7-2.2-5-4c-1.3-1.8-2-3.9-2-6.1c0-2.2,0.7-4.3,2-6.1c1.3-1.8,3.1-3.2,5-4 c2-0.8,4.2-1.1,6.2-0.8c2.1,0.3,4.1,1.1,5.8,2.4c0.8,0.6,1,1.7,0.4,2.5C32.3,20.9,31.7,23,31.8,25.1z"/>
</svg>